<?xml version="1.0" encoding="utf-8"?>
<!-- Generator: Adobe Illustrator 18.1.1, SVG Export Plug-In . SVG Version: 6.00 Build 0)  -->
<svg version="1.1" id="Layer_1" xmlns="http://www.w3.org/2000/svg" xmlns:xlink="http://www.w3.org/1999/xlink" x="0px" y="0px"
	 viewBox="0 0 1106.2 232.3" enable-background="new 0 0 1106.2 232.3" xml:space="preserve">
<path fill="#9FB486" d="M196.2,160.2c-5.3,2.1-10.5,4.3-16.1,5.3c-7.1,1.3-10.2-0.3-12.7-7c-0.7-1.7-1.4-1.8-3-1.8
	c-20.4,0.1-40.8-0.4-61.2,0.3c-10,0.3-19.2-8.8-19.8-19c-0.5-10,8.2-20.4,18.4-20.6c20.4-0.4,40.8-0.1,61.2-0.2
	c2.8,0,3.9,1.2,3.8,3.9c-0.1,1.2-0.1,2.5,0,3.7c0.4,3.9-1.4,5-5.1,5c-19-0.1-38.1-0.1-57.1-0.1c-5.9,0-9.5,3.5-8.7,8.6
	c0.5,3,1.8,5.6,5.5,5.4l-0.1,0c1.3,2,3.3,1.1,5,1.1c17.7,0.1,35.3,0,53,0c7.3,0,7.3,0,7.4,7.4c0,0.6,0.1,1.2,0.2,2.7
	c2.9-5.1,7.1-6,11.7-7.1c16.7-4.3,26.1-15.9,30.2-32c1-3.8,2.6-6.5,6.4-7.6c5.6-1.6,10.5,2.5,10.5,8.7c0.3,28.6-10,53-29.3,73.8
	c-0.4,0.5-0.9,0.9-1.3,1.3c-0.2,0.2-0.2,0.5-0.4,1.2c5.5,1.3,11.1,1.9,16.4,3.7c4.2,1.4,7.5,3.5,7.5,8.6c0,6.4-4.8,10.6-10.9,8.6
	c-17.5-5.8-34-3-51.2,2.9c-41.8,14.5-79.7,7.3-112.8-22.9c-0.4-0.4-0.9-0.8-1.4-1.1c-0.1-0.1-0.3,0-0.7,0.1
	c-1.2,5.7-1.9,11.6-3.9,17.2c-2.1,5.8-7.3,8.2-12.5,5.8c-3.9-1.8-5.8-6.2-4.2-11c5.4-16.5,3.5-32.4-2.4-48.6
	c-15.4-42.4-8.5-80.8,22-114.5c0.4-0.5,0.8-0.9,1.2-1.4c0.1-0.1,0.1-0.3,0.2-0.7c-5.4-1.3-10.9-2.4-16.2-3.8
	c-4.3-1.1-7.5-3.4-7.6-8.5C18.2,21.4,23,17,29.1,19c17.7,5.9,34.3,3,51.6-3C122.3,1.5,160.1,9,193,38.9c0.5,0.5,1.1,0.9,2,1.7
	c1.5-6,1.9-11.8,3.9-17.2c2.3-6,6.8-8.5,12.2-6.6c4.4,1.6,6.2,6.4,4.5,12c-4.2,13.6-4.2,27.1,0.2,40.7c2.7,8.1-1.3,13.4-9.4,12.7
	c-3.3-0.3-5.1-2.1-6.6-5c-8-15.5-19-28.1-34-37.3c-1-0.6-2.2-1-3.3-1.5c-0.3-0.3-0.6-0.7-0.9-0.1c0,0.1,0.3,0.4,0.5,0.6
	c2.4,5.3,4.4,10.8,5.4,16.6c1.4,8-2.2,12.5-9.5,12c-4.6-0.3-6.9-3.3-7.5-7.4C148.2,43.8,138,34.2,123.9,28
	c-6.4-2.8-13.3-1.6-19.9-0.4c-27.1,4.7-47.8,18.9-62.5,42c-0.6,0.9-0.8,1.9-1.2,2.9c-0.3,0.3-0.7,0.6-0.1,0.9c0.1,0,0.4-0.3,0.6-0.5
	c5.3-2.4,10.8-4.4,16.6-5.4c8-1.4,12.5,2.2,12,9.5c-0.3,4.6-3.3,6.9-7.4,7.5c-16.3,2.4-26,12.7-32.3,27c-2.1,4.8-1.5,10-0.9,15
	c3.8,29.4,18.4,51.8,43.5,67.6c0.6,0.4,1.4,0.5,2.2,0.7c0.3,0.3,0.6,0.7,1,0.1c0-0.1-0.3-0.4-0.5-0.6c-1.4-3.6-2.9-7.1-4.1-10.7
	c-1.8-5.7,0.5-10.9,5-12.1c5.8-1.6,9.8,0.9,11.7,7.2c4.5,14.4,14.7,23.3,28.6,27.5c7.2,2.2,14.9,0.2,22.3-1.5
	c25-5.9,44.1-20.1,57.6-41.8c0.4-0.6,0.5-1.4,0.7-2.2c0.3-0.3,0.7-0.6,0.1-0.9C196.7,159.7,196.4,160.1,196.2,160.2z"/>
<path fill="#9EB385" d="M505.6,160.8c-4.9,5-9.7,8.7-15.8,10.3c-21,5.6-34.5-6.6-32.1-29.2c1.6-14.9,10.1-22.2,25.2-24
	c5.3-0.6,10.7-1.1,15.8-2.8c5.5-1.8,8-5.7,7.4-11.2c-0.4-3.9-3.5-6.3-9-7c-9.7-1.1-16.3,2.5-17.5,11.2c-0.3,2-1.2,2.5-3,2.5
	c-4.3-0.1-8.6-0.2-12.9,0c-3.2,0.2-4.4-1.2-3.5-4c1.1-3.6-0.8-4.2-3.7-4.4c-12.2-0.8-20.3,6.6-20.4,18.9
	c-0.1,14.4-0.1,28.9,0.1,43.3c0,3.2-0.8,4.5-4.1,4.2c-5.3-0.5-12.2,2.2-15.5-1.1c-3-3.1-0.8-9.9-0.8-15.1c-0.1-22.3,0-44.6-0.1-66.8
	c0-3.5,0.6-5,4.5-4.7c4.1,0.4,8.3,0.2,12.4,0c2.9-0.2,3.7,1,3.6,3.7c-0.2,3.6,0,7.3,0.3,11.1c2.2-3.7,4.6-7.1,7.9-9.9
	c2.1-1.8,4.4-3.3,7-4.4c8.1-3.1,9.5-2.3,9.5,6.3c0,3.8,0,7.7,0,11.5c3.9-10.9,11.5-17,22.9-18.6c10.6-1.4,21-1.4,30.4,4
	c7.7,4.4,11.2,11.7,11.3,20.4c0.2,15.7,0.1,31.3,0.1,47c0,4.6,0.3,8.9,3.7,12.4c0.8,0.9,1.1,1.9,0.8,3c-0.6,1.6-2.1,1-3.2,1
	c-4.6,0.1-9.2-0.2-13.8,0.1c-3.7,0.2-5.9-0.7-6.1-4.7C506.7,163.2,506.2,162.4,505.6,160.8z M506.1,132.6c-1.6-0.7,1.7-4.9-1.6-3.9
	c-6.9,2.2-14.2,2.1-20.9,5c-4.2,1.8-5.8,5.3-6,9.5c-0.1,3.7,1.4,6.9,5,8.6c3.5,1.6,7.2,1.6,10.8,0.7
	C501.6,150.7,505.9,144,506.1,132.6z"/>
<path fill="#9EB385" d="M672.1,93.6c0-4.1,0.1-7,0-9.9c-0.1-2,0.8-2.7,2.7-2.7c4.3,0.1,8.6,0.2,12.9,0c2.9-0.1,3.6,1,3.6,3.7
	c-0.1,10.1-0.1,20.3-0.1,30.4c0,18-0.3,35.9,0.1,53.9c0.5,21.2-13.4,33.8-33.2,35.4c-11.1,0.9-22.2,0.1-31.5-7.3
	c-4.4-3.5-6.9-8.2-8-13.6c-0.6-2.5-0.1-4.1,3.1-3.9c3.4,0.2,6.8,0.2,10.1,0c4.1-0.2,7.4,0.2,10.7,4c4.6,5.3,11.4,5.4,18,3.2
	c6.3-2.2,10.4-6.7,11.3-13.3c0.5-4,0.1-8.1,0.1-13.3c-6,8.2-13,12.3-22.4,12.2c-10.2-0.1-18.1-4.1-23.9-12.4
	c-13.6-19.3-11-54.7,4.7-71.3c10.6-11.3,29.7-11.9,38.7,1.7C669.7,91.3,670.5,92,672.1,93.6z M635.9,127.9
	c-0.4,6.7,1.1,13.3,5.4,19.1c6.2,8.5,16.5,9.3,23.7,1.8c9.9-10.2,9.7-33.6-0.4-43.6c-7-7-17.3-6.2-23.1,1.9
	C637.1,113.2,635.7,120.2,635.9,127.9z"/>
<path fill="#9EB385" d="M255,133.7c0.8,0,1.5,0,2.3,0c7.4,0,7.4,0,10,6.8c2.9,7.5,8.9,11,16.6,12.1c5.9,0.9,11.7,0.6,17.2-1.6
	c7.2-2.8,10-7.2,9.8-14.4c-0.2-6.9-3.6-11.9-10.7-13.8c-9.1-2.5-18.5-4.2-27.8-6.3c-20.4-4.6-30-20.2-25-40.6
	c3.5-14.4,14.5-23.7,32.2-25.7c13-1.5,25.8-0.1,36.8,8.3C325,65,328.1,74.2,329,84.5c0.2,2.5-0.9,3.2-3.2,3.1
	c-2.9-0.1-5.8-0.2-8.8,0c-5.2,0.3-8.8,0.2-10.6-6.8c-2.1-8.2-10.2-10.8-18.2-11.6c-3.4-0.3-6.7-0.1-10.1,0.8
	c-7.3,1.8-10.9,6-11,13.3c-0.1,6.7,3,10.7,10.4,12.6c9.1,2.3,18.2,4.3,27.3,6.4c0.4,0.1,0.9,0.1,1.4,0.3c18.3,5,25.6,13.4,25.9,29.7
	c0.4,19.9-7.7,32.2-25.3,37.4c-13.7,4.1-27.6,4.5-40.9-1.7c-13.4-6.3-19.2-17.8-21.4-31.8c-0.3-1.8,0.3-2.6,2.2-2.5
	C249.4,133.7,252.2,133.7,255,133.7z"/>
<path fill="#9FB486" d="M800.9,91.3c11.5-17.1,38-13.7,48.1,4.8c10.5,19,8,50.1-5.4,67.2c-10.4,13.4-30.8,10.5-39.3,1.5
	c-0.9-1-1.8-1.9-2.9-3c-1.2,7-1.2,7.1-8.8,7c-4.1-0.1-9.3,1.8-11.9-0.9c-2.4-2.5-0.7-7.6-0.7-11.6c-0.1-33.3,0-66.6-0.1-100
	c0-3.5,0.7-5,4.5-4.7c4.3,0.4,8.6,0.2,12.9,0c2.9-0.1,3.6,1,3.6,3.7C800.8,67,800.9,78.6,800.9,91.3z M801,126.4
	c-0.3,7,1.1,13.5,4.8,19.4c6.2,9.7,18.3,9.9,24.1,0c7.3-12.5,7.1-25.7,0.4-38.2c-6-11.1-18.7-10.6-25,0.2
	C801.9,113.6,800.6,119.8,801,126.4z"/>
<path fill="#9FB486" d="M1098.7,81.1c-5.6,7.1-10.4,13.3-15.3,19.5c-2.8,3.6-5.5,7.4-8.6,10.8c-2.2,2.5-2.1,4.6-0.6,7.4
	c8.3,15.4,16.5,30.9,24.6,46.3c0.5,0.9,0.9,1.9,1.6,3.5c-7.8,0-15.1,0-22.4,0c-2.2,0-2.5-2-3.2-3.4c-4.9-9.7-9.7-19.5-14.6-29.2
	c-0.6-1.2-1.3-2.4-2-3.7c-6,4.6-9.8,9.8-8.7,17.9c0.7,5,0,10.1,0.2,15.2c0.1,2.5-0.7,3.6-3.4,3.5c-4.6-0.2-9.2-0.2-13.8,0
	c-3.2,0.2-3.8-1.2-3.8-4c0.1-18.7,0-37.5,0-56.2c0-17.5,0.1-35-0.1-52.5c0-3.3,0.7-4.7,4.3-4.5c4.3,0.3,8.6,0.3,12.9,0
	c3.2-0.2,3.8,1.1,3.8,4c-0.1,17.8-0.1,35.6-0.1,53.4c0,1.5,0,3,0,5.9c5.8-7.5,11.5-13.6,15.5-20.6c6.1-10.8,14.3-15.4,26.5-13.1
	C1093.6,81.4,1095.6,81.1,1098.7,81.1z"/>
<path fill="#9EB385" d="M403.8,130c0,7.7,0.1,15.4,0,23c-0.1,4.3,0.5,8.3,3.5,11.6c0.9,1,1.4,2.1,0.8,3.4c-0.6,1.2-1.9,0.8-2.9,0.8
	c-5.2,0-10.4-0.1-15.7,0.1c-2.5,0.1-3.6-0.9-4.2-3.1c-1.3-4.7-1.4-4.7-5.2-1.4c-7.1,6.2-15.3,8.9-24.6,8
	c-11.8-1.1-19.2-10.2-19.9-24.2c-0.8-17.3,8.5-28.1,25.8-30.1c5.2-0.6,10.4-1.1,15.4-2.7c5.5-1.8,7.9-5.3,7.6-10.6
	c-0.3-4.4-2.8-6.6-8.9-7.5c-8.3-1.2-16.5,1.6-17.5,11c-0.2,2.2-1.4,2.6-3.4,2.6c-4.1-0.1-8.3-0.2-12.4,0c-3.5,0.2-4.1-1.2-3.7-4.3
	c2.1-15.9,9.4-23.6,25.7-25.9c7.8-1.1,15.6-0.7,23.2,2c10.1,3.5,16.1,11.5,16.4,22.1C403.9,113.1,403.8,121.5,403.8,130
	C403.8,130,403.8,130,403.8,130z M384.2,127.9c-5.9,2.7-12,2.9-17.9,4.4c-1.8,0.4-3.5,1.1-5.1,1.9c-4.2,2.2-5.4,6.1-5,10.5
	c0.4,4.5,3.2,7.1,7.6,8c9.3,2.1,17.2-2.7,19.6-12C384.4,136.8,384.7,132.9,384.2,127.9z"/>
<path fill="#9EB385" d="M937.5,126.3c0.3,10.6-1.2,20.8-7.1,29.9c-8.8,13.6-22.2,17.3-37.3,15.9c-13.7-1.2-23.4-8.8-28.7-21.4
	c-6.5-15.4-6.7-31.2-1.2-46.7c7-19.8,23.6-26.1,42.4-23.3c18.9,2.8,30.9,17.7,31.9,38.2C937.6,121.4,937.5,123.9,937.5,126.3z
	 M917.2,128.8c0-10.6-1.9-17.3-5.9-22.5c-5.9-7.8-15.6-9-22.5-2.7c-11.1,10.1-11.4,34.7-0.5,45c6.6,6.2,15.5,6,21.7-0.6
	C915.7,142,917,134.5,917.2,128.8z"/>
<path fill="#9EB385" d="M1020.5,126.5c0.3,10.8-1.3,21.2-7.5,30.3c-8.9,13.3-22.3,16.7-37.1,15.3c-13.5-1.3-23.1-8.7-28.4-21.2
	c-6.5-15.3-6.8-31.2-1.4-46.7c6.9-19.8,23.6-26.4,42.7-23.5c18.9,2.9,30.7,17.8,31.7,38.4C1020.6,121.6,1020.5,124.1,1020.5,126.5z
	 M1000.2,127.8c0-8.5-1.4-15.5-6-21.5c-5.9-7.8-15.7-8.9-22.5-2.6c-11.1,10.2-11.3,34.7-0.4,45c6.5,6,15.3,5.9,21.4-0.4
	C998.6,142.2,1000,134.6,1000.2,127.8z"/>
<path fill="#9EB385" d="M746.3,131.8c-7.7,0-15.4,0.1-23,0c-2.6,0-3.5,0.8-3.5,3.4c0.2,6.9,2.2,12.7,8.4,16.4
	c5.6,3.3,11.4,3.2,17-0.2c0.9-0.5,2.1-1.1,2.5-2c5.4-9.9,14.6-4.3,22.2-5.3c2.7-0.4,1.4,2.4,0.8,3.7c-5.4,12.3-14.4,20.5-27.6,23.6
	c-21.9,5.1-41-9.5-43.3-32.9c-1.1-11.2-0.8-22.4,2.6-33.2c4.3-13.8,12.9-23.1,27.7-24.8c15.3-1.8,27.8,3.5,36.1,17
	c5.8,9.5,7.2,20,6.7,30.9c-0.1,2.8-1.2,3.6-3.9,3.5C761.4,131.7,753.9,131.8,746.3,131.8z M735.6,117.1c4.3,0,8.6-0.1,12.9,0
	c2.3,0.1,2.8-0.9,2.5-3.1c-1.2-9.1-6.3-14.2-14.4-14.5c-9-0.2-14.9,4.9-16.5,14c-0.5,2.7,0.3,3.6,3,3.5
	C727.3,116.9,731.5,117.1,735.6,117.1z"/>
<path fill="#9EB385" d="M558.7,93.3c2.9-3.2,4.4-6.3,7-8.4c14.5-11.5,39.2-2.1,42.6,16.3c0.5,3,0.8,6.1,0.8,9.1
	c0.1,18,0,35.9,0.1,53.9c0,3.3-0.7,4.8-4.3,4.5c-4.1-0.3-8.3-0.3-12.4,0c-3.6,0.3-4.3-1.2-4.3-4.5c0.1-17.4,0.1-34.7,0.1-52.1
	c0-8.4-3.7-12.3-12.2-12.7c-10.9-0.5-17.4,5.7-17.4,16.6c0,16.1-0.1,32.2,0.1,48.4c0,3.1-0.8,4.4-4.1,4.2c-4.1-0.3-8.3-0.3-12.4,0
	c-3.4,0.2-4-1.1-4-4.2c0.1-26.4,0.1-52.8,0-79.2c0-3.6,1.1-4.5,4.4-4.3c4.1,0.3,8.3,0.2,12.4,0c2.8-0.1,3.9,0.8,3.6,3.7
	C558.6,87.2,558.7,89.8,558.7,93.3z"/>
<path fill="#9FB486" d="M116.6,76.4c10.1,0,20.3,0.2,30.4-0.1c4.3-0.1,5.2,1.7,5.1,5.5c-0.1,3.7,0,6.6-5.1,6.5
	c-18.9-0.2-37.8-0.1-56.7-0.1c-2.1,0-4.4-0.2-6.3,1.1c-2.9,2-4.3,4.9-3.4,8.4c1,3.6,3.5,5.7,7.4,5.7c10,0,20,0,30,0
	c9.7,0,19.4,0.2,29-0.1c5.4-0.2,4.9,3,5,6.6c0.1,3.6,0,6.2-4.9,6.1c-19.7-0.2-39.3,0-59-0.1c-9,0-17.1-6.3-18.9-14.2
	C66.8,91.4,71,82.1,79.9,77.7c2.2-1.1,4.4-1.3,6.7-1.3C96.6,76.4,106.6,76.4,116.6,76.4z"/>
<path fill="#9FB486" d="M101.4,143.8c-0.5-0.6-0.9-1.2-1.4-1.7c-2.5-1.8-3-4.3-2.1-6.9c0.9-2.6,3.2-3.6,5.9-3.6c6.4,0,12.9,0,19.3,0
	c9.4,0,18.7,0.2,28.1-0.1c5-0.2,4.8,2.7,4.9,6.2c0.1,3.6-0.2,6.1-5,6.1C134.5,143.5,117.9,143.7,101.4,143.8
	C101.4,143.8,101.4,143.8,101.4,143.8z"/>
<path fill="#9EB385" d="M112.5,101.7c-7.7,0-15.4,0-23,0c-4.5,0-6.7-2-6.7-5.7c0-3.8,2.2-5.9,6.6-5.9c15.8-0.1,31.6,0.1,47.5-0.1
	c4.5-0.1,4.5,2.5,4.4,5.6c-0.1,2.9,1,6.3-4.2,6.2C128.7,101.5,120.6,101.7,112.5,101.7z"/>
<path fill="#FEFEFD" d="M162.1,38.9c-0.2-0.2-0.5-0.5-0.5-0.6c0.4-0.6,0.7-0.2,0.9,0.1C162.4,38.6,162.2,38.7,162.1,38.9z"/>
<path fill="#FEFEFD" d="M40.7,73c-0.2,0.2-0.5,0.5-0.6,0.5c-0.6-0.4-0.2-0.7,0.1-0.9C40.4,72.7,40.5,72.8,40.7,73z"/>
<path fill="#FEFEFD" d="M196.2,160.2c0.2-0.2,0.5-0.5,0.6-0.5c0.6,0.4,0.2,0.7-0.1,0.9C196.5,160.6,196.4,160.4,196.2,160.2z"/>
<path fill="#FEFEFD" d="M74.8,194.4c0.2,0.2,0.5,0.5,0.5,0.6c-0.4,0.6-0.7,0.2-1-0.1C74.5,194.7,74.7,194.5,74.8,194.4z"/>
</svg>
